<?xml version="1.0" encoding="UTF-8" standalone="no"?>
<!DOCTYPE svg PUBLIC "-//W3C//DTD SVG 1.1//EN" "http://www.w3.org/Graphics/SVG/1.1/DTD/svg11.dtd">
<svg width="100%" height="100%" viewBox="0 0 346 161" version="1.1" xmlns="http://www.w3.org/2000/svg" xmlns:xlink="http://www.w3.org/1999/xlink" xml:space="preserve" xmlns:serif="http://www.serif.com/" style="fill-rule:evenodd;clip-rule:evenodd;stroke-linejoin:round;stroke-miterlimit:2;">
    <g transform="matrix(0.75,0,0,0.75,0,0)">
        <g id="Calque-1" serif:id="Calque 1" transform="matrix(1,0,0,1,-27.0168,-64.2501)">
            <g transform="matrix(34.6508,0,0,34.6508,27.1401,270.835)">
                <path d="M0.558,-0.509C0.558,-0.649 0.463,-0.698 0.33,-0.698L0.074,-0.698L0.074,0L0.12,0L0.12,-0.32L0.331,-0.32C0.465,-0.32 0.558,-0.368 0.558,-0.509ZM0.513,-0.509C0.513,-0.388 0.428,-0.361 0.33,-0.361L0.12,-0.361L0.12,-0.654L0.33,-0.654C0.427,-0.654 0.513,-0.629 0.513,-0.509Z" style="fill:rgb(0,113,226);fill-rule:nonzero;"/>
            </g>
            <g transform="matrix(34.6508,0,0,34.6508,46.6832,270.835)">
                <path d="M0.45,-0.239C0.45,-0.38 0.4,-0.489 0.247,-0.489C0.093,-0.489 0.044,-0.38 0.044,-0.239C0.044,-0.099 0.093,0.009 0.247,0.009C0.4,0.009 0.45,-0.099 0.45,-0.239ZM0.407,-0.239C0.407,-0.135 0.381,-0.032 0.246,-0.032C0.111,-0.032 0.087,-0.135 0.087,-0.239C0.087,-0.345 0.111,-0.448 0.247,-0.448C0.382,-0.448 0.407,-0.345 0.407,-0.239Z" style="fill:rgb(0,113,226);fill-rule:nonzero;"/>
            </g>
            <g transform="matrix(34.6508,0,0,34.6508,63.766,270.835)">
                <path d="M0.438,-0.48L0.397,-0.48L0.397,-0.151C0.397,-0.077 0.313,-0.033 0.253,-0.033C0.133,-0.033 0.102,-0.098 0.102,-0.202L0.102,-0.48L0.059,-0.48L0.059,-0.2C0.059,-0.064 0.114,0.008 0.253,0.008C0.3,0.008 0.355,-0.011 0.4,-0.067L0.4,0L0.438,0L0.438,-0.48Z" style="fill:rgb(0,113,226);fill-rule:nonzero;"/>
            </g>
            <g transform="matrix(34.6508,0,0,34.6508,81.1953,270.835)">
                <path d="M0.345,-0.471C0.318,-0.482 0.289,-0.487 0.259,-0.487C0.21,-0.487 0.147,-0.47 0.109,-0.402L0.109,-0.48L0.069,-0.48L0.069,0L0.112,0L0.112,-0.32C0.112,-0.391 0.183,-0.447 0.259,-0.447C0.282,-0.447 0.305,-0.441 0.326,-0.434L0.345,-0.471Z" style="fill:rgb(0,113,226);fill-rule:nonzero;"/>
            </g>
            <g transform="matrix(34.6508,0,0,34.6508,103.164,270.835)">
                <path d="M0.438,-0.48L0.397,-0.48L0.397,-0.151C0.397,-0.077 0.313,-0.033 0.253,-0.033C0.133,-0.033 0.102,-0.098 0.102,-0.202L0.102,-0.48L0.059,-0.48L0.059,-0.2C0.059,-0.064 0.114,0.008 0.253,0.008C0.3,0.008 0.355,-0.011 0.4,-0.067L0.4,0L0.438,0L0.438,-0.48Z" style="fill:rgb(0,113,226);fill-rule:nonzero;"/>
            </g>
            <g transform="matrix(34.6508,0,0,34.6508,120.593,270.835)">
                <path d="M0.448,-0.273C0.448,-0.404 0.395,-0.489 0.255,-0.489C0.205,-0.489 0.144,-0.468 0.109,-0.408L0.108,-0.48L0.069,-0.48L0.069,0L0.112,0L0.112,-0.323C0.112,-0.383 0.173,-0.447 0.254,-0.447C0.374,-0.447 0.407,-0.373 0.407,-0.272L0.407,0L0.448,0L0.448,-0.273Z" style="fill:rgb(0,113,226);fill-rule:nonzero;"/>
            </g>
            <g transform="matrix(34.6508,0,0,34.6508,138.196,270.835)">
                <path d="M0.436,-0.268C0.436,-0.392 0.38,-0.488 0.252,-0.488C0.101,-0.488 0.044,-0.379 0.044,-0.24C0.044,-0.095 0.105,0.009 0.262,0.009C0.331,0.009 0.38,-0.012 0.42,-0.056L0.391,-0.082C0.358,-0.046 0.316,-0.031 0.262,-0.031C0.133,-0.031 0.09,-0.115 0.088,-0.236L0.436,-0.236L0.436,-0.268ZM0.088,-0.27C0.096,-0.378 0.143,-0.448 0.251,-0.448C0.358,-0.448 0.393,-0.368 0.395,-0.27L0.088,-0.27Z" style="fill:rgb(0,113,226);fill-rule:nonzero;"/>
            </g>
            <g transform="matrix(34.6508,0,0,34.6508,164.357,270.835)">
                <path d="M0.436,-0.268C0.436,-0.392 0.38,-0.488 0.252,-0.488C0.101,-0.488 0.044,-0.379 0.044,-0.24C0.044,-0.095 0.105,0.009 0.262,0.009C0.331,0.009 0.38,-0.012 0.42,-0.056L0.391,-0.082C0.358,-0.046 0.316,-0.031 0.262,-0.031C0.133,-0.031 0.09,-0.115 0.088,-0.236L0.436,-0.236L0.436,-0.268ZM0.088,-0.27C0.096,-0.378 0.143,-0.448 0.251,-0.448C0.358,-0.448 0.393,-0.368 0.395,-0.27L0.088,-0.27ZM0.253,-0.682L0.168,-0.534L0.212,-0.534L0.311,-0.682L0.253,-0.682Z" style="fill:rgb(0,113,226);fill-rule:nonzero;"/>
            </g>
            <g transform="matrix(34.6508,0,0,34.6508,180.99,270.835)">
                <path d="M0.44,-0.003C0.439,-0.004 0.424,-0.082 0.424,-0.082L0.424,-0.698L0.381,-0.698L0.381,-0.414C0.348,-0.47 0.285,-0.489 0.24,-0.489C0.089,-0.489 0.044,-0.375 0.044,-0.24C0.044,-0.103 0.085,0.009 0.238,0.009C0.291,0.009 0.35,-0.01 0.386,-0.065L0.401,0.007L0.44,-0.003ZM0.381,-0.161C0.381,-0.08 0.315,-0.032 0.238,-0.032C0.106,-0.032 0.087,-0.144 0.087,-0.24C0.087,-0.337 0.107,-0.448 0.24,-0.448C0.316,-0.448 0.381,-0.397 0.381,-0.318L0.381,-0.161Z" style="fill:rgb(0,113,226);fill-rule:nonzero;"/>
            </g>
            <g transform="matrix(34.6508,0,0,34.6508,198.384,270.835)">
                <path d="M0.438,-0.48L0.397,-0.48L0.397,-0.151C0.397,-0.077 0.313,-0.033 0.253,-0.033C0.133,-0.033 0.102,-0.098 0.102,-0.202L0.102,-0.48L0.059,-0.48L0.059,-0.2C0.059,-0.064 0.114,0.008 0.253,0.008C0.3,0.008 0.355,-0.011 0.4,-0.067L0.4,0L0.438,0L0.438,-0.48Z" style="fill:rgb(0,113,226);fill-rule:nonzero;"/>
            </g>
            <g transform="matrix(34.6508,0,0,34.6508,215.814,270.835)">
                <path d="M0.42,-0.419C0.373,-0.467 0.332,-0.489 0.261,-0.489C0.114,-0.489 0.044,-0.379 0.044,-0.24C0.044,-0.101 0.114,0.008 0.261,0.008C0.332,0.008 0.373,-0.013 0.42,-0.061L0.389,-0.089C0.354,-0.052 0.318,-0.03 0.261,-0.03C0.129,-0.03 0.089,-0.134 0.089,-0.24C0.089,-0.346 0.129,-0.451 0.261,-0.451C0.318,-0.451 0.354,-0.429 0.389,-0.392L0.42,-0.419Z" style="fill:rgb(0,113,226);fill-rule:nonzero;"/>
            </g>
            <g transform="matrix(34.6508,0,0,34.6508,231.961,270.835)">
                <path d="M0.408,-0.075L0.408,-0.355C0.408,-0.436 0.326,-0.49 0.248,-0.49C0.164,-0.49 0.101,-0.46 0.071,-0.387L0.108,-0.375C0.132,-0.431 0.191,-0.45 0.245,-0.45C0.299,-0.45 0.367,-0.415 0.367,-0.351L0.367,-0.298C0.341,-0.271 0.308,-0.271 0.281,-0.271L0.206,-0.271C0.114,-0.27 0.044,-0.22 0.044,-0.133C0.044,-0.038 0.119,0.01 0.214,0.01C0.273,0.01 0.318,-0.007 0.371,-0.052L0.386,0.006L0.423,-0.003L0.408,-0.075ZM0.367,-0.094C0.32,-0.049 0.276,-0.028 0.214,-0.028C0.152,-0.028 0.085,-0.059 0.085,-0.133C0.085,-0.206 0.147,-0.236 0.207,-0.236L0.291,-0.236C0.317,-0.236 0.329,-0.237 0.367,-0.258L0.367,-0.094Z" style="fill:rgb(0,113,226);fill-rule:nonzero;"/>
            </g>
            <g transform="matrix(34.6508,0,0,34.6508,248.247,270.835)">
                <path d="M0.235,-0.48L0.149,-0.48L0.149,-0.626L0.106,-0.626L0.106,-0.48L0.031,-0.48L0.031,-0.442L0.106,-0.442L0.106,-0.109C0.106,-0.045 0.135,0 0.205,0L0.22,0L0.22,-0.038C0.169,-0.04 0.149,-0.056 0.149,-0.111L0.149,-0.442L0.235,-0.442L0.235,-0.48Z" style="fill:rgb(0,113,226);fill-rule:nonzero;"/>
            </g>
            <g transform="matrix(34.6508,0,0,34.6508,257.949,270.835)">
                <path d="M0.145,-0.663C0.145,-0.685 0.127,-0.702 0.106,-0.702C0.084,-0.702 0.067,-0.685 0.067,-0.663C0.067,-0.642 0.084,-0.624 0.106,-0.624C0.127,-0.624 0.145,-0.642 0.145,-0.663ZM0.127,-0.48L0.084,-0.48L0.084,0L0.127,0L0.127,-0.48Z" style="fill:rgb(0,113,226);fill-rule:nonzero;"/>
            </g>
            <g transform="matrix(34.6508,0,0,34.6508,265.26,270.835)">
                <path d="M0.45,-0.239C0.45,-0.38 0.4,-0.489 0.247,-0.489C0.093,-0.489 0.044,-0.38 0.044,-0.239C0.044,-0.099 0.093,0.009 0.247,0.009C0.4,0.009 0.45,-0.099 0.45,-0.239ZM0.407,-0.239C0.407,-0.135 0.381,-0.032 0.246,-0.032C0.111,-0.032 0.087,-0.135 0.087,-0.239C0.087,-0.345 0.111,-0.448 0.247,-0.448C0.382,-0.448 0.407,-0.345 0.407,-0.239Z" style="fill:rgb(0,113,226);fill-rule:nonzero;"/>
            </g>
            <g transform="matrix(34.6508,0,0,34.6508,282.343,270.835)">
                <path d="M0.448,-0.273C0.448,-0.404 0.395,-0.489 0.255,-0.489C0.205,-0.489 0.144,-0.468 0.109,-0.408L0.108,-0.48L0.069,-0.48L0.069,0L0.112,0L0.112,-0.323C0.112,-0.383 0.173,-0.447 0.254,-0.447C0.374,-0.447 0.407,-0.373 0.407,-0.272L0.407,0L0.448,0L0.448,-0.273Z" style="fill:rgb(0,113,226);fill-rule:nonzero;"/>
            </g>
            <g transform="matrix(34.6508,0,0,34.6508,309.475,270.835)">
                <path d="M0.408,-0.075L0.408,-0.355C0.408,-0.436 0.326,-0.49 0.248,-0.49C0.164,-0.49 0.101,-0.46 0.071,-0.387L0.108,-0.375C0.132,-0.431 0.191,-0.45 0.245,-0.45C0.299,-0.45 0.367,-0.415 0.367,-0.351L0.367,-0.298C0.341,-0.271 0.308,-0.271 0.281,-0.271L0.206,-0.271C0.114,-0.27 0.044,-0.22 0.044,-0.133C0.044,-0.038 0.119,0.01 0.214,0.01C0.273,0.01 0.318,-0.007 0.371,-0.052L0.386,0.006L0.423,-0.003L0.408,-0.075ZM0.367,-0.094C0.32,-0.049 0.276,-0.028 0.214,-0.028C0.152,-0.028 0.085,-0.059 0.085,-0.133C0.085,-0.206 0.147,-0.236 0.207,-0.236L0.291,-0.236C0.317,-0.236 0.329,-0.237 0.367,-0.258L0.367,-0.094Z" style="fill:rgb(0,113,226);fill-rule:nonzero;"/>
            </g>
            <g transform="matrix(34.6508,0,0,34.6508,325.761,270.835)">
                <path d="M0.438,-0.48L0.397,-0.48L0.397,-0.151C0.397,-0.077 0.313,-0.033 0.253,-0.033C0.133,-0.033 0.102,-0.098 0.102,-0.202L0.102,-0.48L0.059,-0.48L0.059,-0.2C0.059,-0.064 0.114,0.008 0.253,0.008C0.3,0.008 0.355,-0.011 0.4,-0.067L0.4,0L0.438,0L0.438,-0.48Z" style="fill:rgb(0,113,226);fill-rule:nonzero;"/>
            </g>
            <g transform="matrix(34.6508,0,0,34.6508,343.19,270.835)">
                <path d="M0.249,-0.248L0.41,-0.48L0.359,-0.48L0.224,-0.284L0.089,-0.48L0.036,-0.48L0.199,-0.248L0.027,0L0.079,0L0.224,-0.212L0.37,0L0.421,0L0.249,-0.248Z" style="fill:rgb(0,113,226);fill-rule:nonzero;"/>
            </g>
            <g transform="matrix(34.6508,0,0,34.6508,368.277,270.835)">
                <path d="M0.174,-0.039C0.123,-0.044 0.11,-0.078 0.11,-0.109L0.11,-0.698L0.069,-0.698L0.069,-0.109C0.069,-0.044 0.101,-0.005 0.175,-0.001L0.174,-0.039Z" style="fill:rgb(0,113,226);fill-rule:nonzero;"/>
            </g>
            <g transform="matrix(34.6508,0,0,34.6508,375.554,270.835)">
                <path d="M0.408,-0.075L0.408,-0.355C0.408,-0.436 0.326,-0.49 0.248,-0.49C0.164,-0.49 0.101,-0.46 0.071,-0.387L0.108,-0.375C0.132,-0.431 0.191,-0.45 0.245,-0.45C0.299,-0.45 0.367,-0.415 0.367,-0.351L0.367,-0.298C0.341,-0.271 0.308,-0.271 0.281,-0.271L0.206,-0.271C0.114,-0.27 0.044,-0.22 0.044,-0.133C0.044,-0.038 0.119,0.01 0.214,0.01C0.273,0.01 0.318,-0.007 0.371,-0.052L0.386,0.006L0.423,-0.003L0.408,-0.075ZM0.367,-0.094C0.32,-0.049 0.276,-0.028 0.214,-0.028C0.152,-0.028 0.085,-0.059 0.085,-0.133C0.085,-0.206 0.147,-0.236 0.207,-0.236L0.291,-0.236C0.317,-0.236 0.329,-0.237 0.367,-0.258L0.367,-0.094Z" style="fill:rgb(0,113,226);fill-rule:nonzero;"/>
            </g>
            <g transform="matrix(34.6508,0,0,34.6508,391.84,270.835)">
                <path d="M0.448,-0.273C0.448,-0.404 0.395,-0.489 0.255,-0.489C0.205,-0.489 0.144,-0.468 0.109,-0.408L0.108,-0.48L0.069,-0.48L0.069,0L0.112,0L0.112,-0.323C0.112,-0.383 0.173,-0.447 0.254,-0.447C0.374,-0.447 0.407,-0.373 0.407,-0.272L0.407,0L0.448,0L0.448,-0.273Z" style="fill:rgb(0,113,226);fill-rule:nonzero;"/>
            </g>
            <g transform="matrix(34.6508,0,0,34.6508,409.442,270.835)">
                <path d="M0.406,-0.33C0.406,-0.359 0.402,-0.387 0.384,-0.422C0.429,-0.439 0.445,-0.469 0.448,-0.503L0.409,-0.503C0.406,-0.478 0.391,-0.461 0.36,-0.451C0.325,-0.482 0.28,-0.488 0.236,-0.488C0.129,-0.488 0.067,-0.439 0.067,-0.331C0.067,-0.276 0.085,-0.222 0.147,-0.193C0.102,-0.162 0.082,-0.123 0.082,-0.088C0.082,-0.046 0.12,-0.025 0.167,-0.025C0.223,-0.025 0.276,-0.049 0.333,-0.049C0.37,-0.049 0.414,-0.029 0.414,0.018C0.414,0.108 0.306,0.153 0.232,0.153C0.178,0.153 0.083,0.126 0.083,0.062C0.083,0.056 0.084,0.05 0.085,0.044L0.047,0.031C0.044,0.041 0.042,0.053 0.042,0.063C0.042,0.153 0.148,0.19 0.234,0.19C0.337,0.19 0.455,0.124 0.455,0.017C0.455,-0.047 0.402,-0.086 0.336,-0.086C0.278,-0.086 0.222,-0.058 0.162,-0.058C0.14,-0.058 0.118,-0.063 0.118,-0.094C0.118,-0.131 0.148,-0.16 0.18,-0.179C0.203,-0.175 0.217,-0.174 0.236,-0.174C0.344,-0.174 0.406,-0.224 0.406,-0.33ZM0.366,-0.331C0.366,-0.249 0.318,-0.209 0.236,-0.209C0.156,-0.209 0.108,-0.249 0.108,-0.331C0.108,-0.415 0.156,-0.45 0.237,-0.45C0.318,-0.45 0.366,-0.415 0.366,-0.331Z" style="fill:rgb(0,113,226);fill-rule:nonzero;"/>
            </g>
            <g transform="matrix(34.6508,0,0,34.6508,426.421,270.835)">
                <path d="M0.438,-0.48L0.397,-0.48L0.397,-0.151C0.397,-0.077 0.313,-0.033 0.253,-0.033C0.133,-0.033 0.102,-0.098 0.102,-0.202L0.102,-0.48L0.059,-0.48L0.059,-0.2C0.059,-0.064 0.114,0.008 0.253,0.008C0.3,0.008 0.355,-0.011 0.4,-0.067L0.4,0L0.438,0L0.438,-0.48Z" style="fill:rgb(0,113,226);fill-rule:nonzero;"/>
            </g>
            <g transform="matrix(34.6508,0,0,34.6508,443.851,270.835)">
                <path d="M0.436,-0.268C0.436,-0.392 0.38,-0.488 0.252,-0.488C0.101,-0.488 0.044,-0.379 0.044,-0.24C0.044,-0.095 0.105,0.009 0.262,0.009C0.331,0.009 0.38,-0.012 0.42,-0.056L0.391,-0.082C0.358,-0.046 0.316,-0.031 0.262,-0.031C0.133,-0.031 0.09,-0.115 0.088,-0.236L0.436,-0.236L0.436,-0.268ZM0.088,-0.27C0.096,-0.378 0.143,-0.448 0.251,-0.448C0.358,-0.448 0.393,-0.368 0.395,-0.27L0.088,-0.27Z" style="fill:rgb(0,113,226);fill-rule:nonzero;"/>
            </g>
            <g transform="matrix(34.6508,0,0,34.6508,460.483,270.835)">
                <path d="M0.412,-0.132C0.412,-0.317 0.099,-0.236 0.099,-0.366C0.099,-0.435 0.174,-0.448 0.22,-0.448C0.275,-0.448 0.323,-0.435 0.353,-0.384L0.388,-0.402C0.35,-0.466 0.295,-0.488 0.218,-0.488C0.135,-0.488 0.056,-0.451 0.056,-0.366C0.056,-0.195 0.369,-0.28 0.369,-0.131C0.369,-0.056 0.291,-0.03 0.234,-0.03C0.168,-0.03 0.101,-0.052 0.081,-0.121L0.042,-0.112C0.064,-0.025 0.143,0.009 0.234,0.009C0.323,0.009 0.412,-0.04 0.412,-0.132Z" style="fill:rgb(0,113,226);fill-rule:nonzero;"/>
            </g>
            <g transform="matrix(1,0,0,1,67.8208,66.5225)">
                <path d="M0,66.081L-40.804,66.081L-40.804,0L-28.97,0L-28.97,54.626L0,54.626L0,66.081Z" style="fill:rgb(0,113,226);fill-rule:nonzero;"/>
            </g>
            <g transform="matrix(1,0,0,1,104.367,113.954)">
                <path d="M0,-9.184C-0.568,-14.201 -2.746,-18.178 -8.332,-18.178C-14.012,-18.178 -16.757,-14.58 -17.514,-9.184L0,-9.184ZM10.508,-1.989L-17.609,-1.989C-17.23,4.354 -14.012,8.993 -7.29,8.993C-3.03,8.993 0.378,7.005 2.745,4.544L9.846,11.36C4.828,16.472 -0.379,19.502 -7.29,19.502C-21.585,19.502 -29.254,8.993 -29.254,-4.545C-29.254,-17.893 -22.153,-28.686 -7.858,-28.686C3.787,-28.686 10.508,-19.219 10.508,-5.871L10.508,-1.989Z" style="fill:rgb(0,113,226);fill-rule:nonzero;"/>
            </g>
            <g transform="matrix(1,0,0,1,194.435,119.254)">
                <path d="M0,-41.655C-3.691,-41.655 -6.627,-44.684 -6.627,-48.376C-6.627,-52.069 -3.691,-55.004 0,-55.004C3.692,-55.004 6.627,-52.069 6.627,-48.376C6.627,-44.684 3.692,-41.655 0,-41.655M5.491,13.349L-5.586,13.349L-5.586,-23.667L-23.005,-23.667L-23.005,13.349L-33.987,13.349L-33.987,-23.667L-37.963,-23.667L-37.963,-33.229L-33.987,-33.229L-33.987,-38.626C-33.987,-51.122 -25.94,-52.542 -14.768,-52.732L-14.768,-43.548C-20.449,-43.454 -23.005,-41.939 -23.005,-35.69L-23.005,-33.229L5.491,-33.229L5.491,13.349Z" style="fill:rgb(0,113,226);fill-rule:nonzero;"/>
            </g>
            <g transform="matrix(1,0,0,1,48.7241,217.883)">
                <path d="M0,-45.441C-4.354,-45.441 -7.668,-42.506 -7.668,-38.341L-7.668,-26.412C-7.668,-22.151 -4.45,-19.312 0,-19.312C7.763,-19.312 8.237,-26.602 8.237,-32.377C8.237,-38.057 7.763,-45.441 0,-45.441M0,-8.329C-2.556,-8.329 -5.301,-8.992 -7.668,-11.17L-7.668,11.456L-18.934,11.456L-18.934,-55.95L-9.656,-55.95L-9.278,-53.11C-6.721,-55.666 -3.124,-56.897 0.095,-56.897C14.674,-56.897 19.597,-45.252 19.597,-32.377C19.597,-19.312 14.485,-8.329 0,-8.329" style="fill:rgb(0,113,226);fill-rule:nonzero;"/>
            </g>
            <g transform="matrix(1,0,0,1,91.9917,142.43)">
                <path d="M0,66.082C-9.183,65.986 -14.39,63.052 -14.39,53.207L-14.39,0L-3.692,0L-3.692,53.017C-3.692,55.384 -2.651,56.426 0,56.52L0,66.082Z" style="fill:rgb(0,113,226);fill-rule:nonzero;"/>
            </g>
            <g transform="matrix(1,0,0,1,139.139,162.785)">
                <path d="M0,45.727L-9.278,45.727L-9.751,42.981C-12.592,45.348 -16,46.579 -19.219,46.579C-32.378,46.579 -38.531,38.911 -38.531,26.224L-38.531,-0.852L-27.266,-0.852L-27.266,25.562C-27.266,31.432 -25.846,35.596 -18.935,35.596C-14.863,35.596 -11.361,32.662 -11.361,28.307L-11.361,-0.852L0,-0.852L0,45.727Z" style="fill:rgb(0,113,226);fill-rule:nonzero;"/>
            </g>
            <g transform="matrix(1,0,0,1,176.349,196.393)">
                <path d="M0,-23.478C-1.799,-24.235 -3.692,-24.804 -5.585,-24.804C-10.414,-24.804 -13.538,-21.773 -13.538,-17.325L-13.538,12.119L-24.804,12.119L-24.804,-34.46L-15.621,-34.46L-15.147,-31.525C-14.58,-32.567 -10.509,-35.597 -5.585,-35.597C-2.083,-35.597 1.042,-34.46 4.26,-32.283L0,-23.478Z" style="fill:rgb(0,113,226);fill-rule:nonzero;"/>
            </g>
            <g transform="matrix(1,0,0,1,0,-1.33)">
                <path d="M200.681,209.842L189.604,209.842L189.604,163.263L200.681,163.263L200.681,209.842ZM195.19,154.837C191.593,154.837 188.563,151.808 188.563,148.116C188.563,144.423 191.593,141.488 195.19,141.488C198.978,141.488 201.912,144.423 201.912,148.116C201.912,151.808 198.978,154.837 195.19,154.837" style="fill:rgb(0,113,226);fill-rule:nonzero;"/>
            </g>
            <g transform="matrix(1,0,0,1,225.302,78.3526)">
                <path d="M0,118.329L0.44,-11.83L-10.258,-11.83L-11.271,130.159L29.532,130.159L29.532,118.704L0,118.329Z" style="fill:rgb(234,0,72);fill-rule:nonzero;"/>
            </g>
            <g transform="matrix(1,0,0,1,0,-1.33)">
                <path d="M276.139,209.842L265.063,209.842L265.063,163.263L276.139,163.263L276.139,209.842ZM270.647,154.837C267.05,154.837 264.021,151.808 264.021,148.116C264.021,144.423 267.05,141.488 270.647,141.488C274.435,141.488 277.369,144.423 277.369,148.116C277.369,151.808 274.435,154.837 270.647,154.837" style="fill:rgb(0,113,226);fill-rule:nonzero;"/>
            </g>
            <g transform="matrix(1,0,0,1,327.546,160.986)">
                <path d="M0,47.526L-11.36,47.526L-11.36,21.492C-11.36,15.621 -12.78,11.172 -19.597,11.172C-24.047,11.172 -27.266,14.77 -27.266,18.84L-27.266,47.526L-38.531,47.526L-38.531,0.947L-29.253,0.947L-28.875,3.787C-26.508,1.326 -22.437,0 -19.124,0C-5.396,0 0,8.426 0,21.301L0,47.526Z" style="fill:rgb(0,113,226);fill-rule:nonzero;"/>
            </g>
            <g transform="matrix(1,0,0,1,355.477,215.519)">
                <path d="M0,-43.835C-4.164,-43.835 -7.101,-41.656 -7.101,-37.207C-7.101,-32.568 -4.544,-30.485 0,-30.485C4.545,-30.485 7.007,-32.568 7.007,-37.207C7.007,-41.656 4.166,-43.835 0,-43.835M-0.378,-20.545C-2.083,-20.545 -3.691,-20.829 -5.396,-21.492C-6.626,-20.545 -7.763,-19.125 -7.763,-17.516C-7.763,-16.096 -6.531,-15.812 -5.49,-15.812C-0.473,-15.812 4.355,-18.083 9.374,-18.083C16.284,-18.083 21.491,-13.54 21.491,-6.534C21.491,4.922 10.319,11.644 -0.188,11.644C-9.277,11.644 -19.785,7.951 -19.785,-2.558C-19.785,-3.978 -19.597,-5.492 -19.028,-6.912L-9.088,-3.978C-9.183,-3.504 -9.183,-3.221 -9.183,-2.746C-9.183,0.094 -5.111,1.514 -1.324,1.514C3.977,1.514 10.888,-1.043 10.888,-6.061C10.888,-8.048 9.089,-8.995 7.385,-8.995C3.314,-8.995 -0.473,-7.481 -4.448,-7.481C-10.129,-7.481 -16.851,-9.847 -16.851,-16.475C-16.851,-19.599 -15.431,-22.628 -13.254,-24.995C-16.566,-28.309 -17.798,-32.853 -17.798,-37.207C-17.798,-48.284 -10.981,-54.343 0,-54.343C3.693,-54.343 7.479,-53.775 10.698,-51.692C11.551,-52.734 11.834,-54.059 11.834,-55.479L21.207,-55.479C21.112,-51.408 20.354,-46.958 16.663,-44.497C17.42,-41.846 17.799,-39.385 17.799,-37.207C17.799,-26.415 10.319,-20.545 -0.378,-20.545" style="fill:rgb(0,113,226);fill-rule:nonzero;"/>
            </g>
            <g transform="matrix(1,0,0,1,424.116,162.785)">
                <path d="M0,45.727L-9.277,45.727L-9.751,42.981C-12.591,45.348 -15.998,46.579 -19.218,46.579C-32.378,46.579 -38.531,38.911 -38.531,26.224L-38.531,-0.852L-27.265,-0.852L-27.265,25.562C-27.265,31.432 -25.845,35.596 -18.935,35.596C-14.862,35.596 -11.359,32.662 -11.359,28.307L-11.359,-0.852L0,-0.852L0,45.727Z" style="fill:rgb(0,113,226);fill-rule:nonzero;"/>
            </g>
            <g transform="matrix(1,0,0,1,463.03,189.861)">
                <path d="M0,-9.182C-0.568,-14.2 -2.746,-18.177 -8.331,-18.177C-14.011,-18.177 -16.757,-14.578 -17.515,-9.182L0,-9.182ZM10.508,-1.988L-17.608,-1.988C-17.229,4.356 -14.011,8.995 -7.29,8.995C-3.03,8.995 0.379,7.006 2.746,4.545L9.847,11.361C4.828,16.473 -0.379,19.503 -7.29,19.503C-21.586,19.503 -29.254,8.995 -29.254,-4.543C-29.254,-17.892 -22.153,-28.685 -7.857,-28.685C3.787,-28.685 10.508,-19.217 10.508,-5.869L10.508,-1.988Z" style="fill:rgb(0,113,226);fill-rule:nonzero;"/>
            </g>
        </g>
    </g>
</svg>
